<?xml version="1.0" encoding="UTF-8"?>
<svg version="1.1" viewBox="0 0 1024 1024" width="1024" height="1024" xmlns="http://www.w3.org/2000/svg">
<path transform="translate(0)" d="m0 0h1024v1024h-1024z" fill="#020210"/>
<path transform="translate(437,300)" d="m0 0h29l17 40 12 29 6 15 17 41 44 105 13 30 8 18 6 11v2h-45l-9-1-14-34-9-22 1 9-1 1v12l2 4v11l1 19 1 2v24l-1 4v7l7 1 3 4-1 8 1 4 1 28 4 40-1 16-2-3v-5h-2l-1-7 2-4-2-8-1 13h-2l-1 8-6 9-10 6-4 1h-13l-11-4-8-7-4-9-1-4v-45l5-1 1-7 2-7 2-15 1-4h-2l-1 5-2-1-2-7-3 1-1 6h-2l-1 7-5 10-1 1-1 9-5 9-3 9-1 6-3 9-3 6-2 6-4 10v2l3 1-1 7-2 6h-49l-1-1v-67l4-1 1-6 5-5 3-6 3-1 3-6-2-1 5-1-1-5-9 7h-2l1-7 5-6h2l1-4-4-2-1 5-4 1-7 8-2 3 1 2-2 2-6 3-2 4h-3l-1 2h-2l-1 6h-2l-1 3h-2l-2 4-3 3h-3l-2 6-1 2h-2v3l-2 1 1 6 3 10-1 13-4 10-9 10-8 4-6 2h-15l-10-3-9-7-6-8-3-8-1-12 3-12 8-11 5-4 10-4 5-1h10l10 3 8 5 5 3 2-6 4-5h3l7-9v-3h4l5-8 1-3 4-1 1-4 3-2 1-3 5-3 3-5h2l-1-3 5-2 5-6h3v-2h2v-4h2v-2l3-1 1-3 4-1-1-4-6 1-2 4-3 3h-5l-2 6-7 6h-2l-1 4-6 3h-2v2l-5 1 1-4 2-3 5-3 1-4-3-1-3 5-5 1-1 3-7 4-2 4-6 5-6 2 1 2-4 4-5 1-3 1 1-4 7-7 8-7 1-4h2l7-4 6-7h3l1-4 4-2 2-3h2v-2l4-2 1-4 7-1 2 4 7-3 4-4 5-2 1-4 9-7 3-3 4-1 1-4 3-3h2l1-5 7-2 2-4-8 1-3 1-2 6h-2v2l-5 1v2l-10 6-3 1-2 3-9 5-4 4v3l-4 2-2-2h-2v2l-3 1-1-3h-9l-3 5-10 4-9 6-4 1-1-2 2-1-2-3-9 5-3 2-1 3h-2l-1 2-6 3-5 3-6 7-4-1v2l8-1-4 8-6 2-4 3h-2v2l-6 3-1-5-4 1v3h-2l-4-7 1-3 4-1 1-2 8-3 5-4 5-3h2l-1-3 11-5 4-2 3-3 5-3 3-3 2-5 5 1 1-2 4-2 11-2v-2h-47l8-20 17-43 11-28 11-27 32-80 11-28 9-23 6-14 6-16 5-10z" fill="#02051D"/>
<path transform="translate(645,299)" d="m0 0h136l-1 4-11 18-14 25-3 2-118 1-11 4-8 6-6 9-3 10v11l3 11 8 10 7 5 11 3 26 1h19l24 1 16 3 15 6 13 8 10 8 11 14 8 16 4 17v23l-2 13-5 15-7 12-7 9-9 9-15 9-12 5-11 3-7 1h-98l-11-23-11-21v-3h110l13-2 10-5 7-7 5-9 3-14-1-12-3-8-6-8-9-7-13-4-5-1-64-1-16-3-13-5-14-8-12-11-9-12-6-14-4-19v-23l4-19 8-17 8-10 8-7 8-6 14-7 14-4z" fill="#FBFCFC"/>
<path transform="translate(497,201)" d="m0 0 4 1 1 7v31l7 2-1 5h-2l1 10v25l1 6v19l1 13v42l1 2-1 11 1 1-1 20 3-2-1-13v-13l1-5v-19l1-7-2-1 1-6v-32l5-1 1 6 1 5 1-5h4l1 9-1 24h-6v6l1 7-1 4 4-1 4 2-1 5-3 6-2-4-2-1-1 7 1 4-1 18 2 15h3l1-18 3-9 3-25v-8l1-7v-17l-1-4v-6l-1-3 2-9 1-10v-11l-1-2v-6l5-2 4 3-1 6-1 3-1 18v20l1 18-1 6v12l-1 2-1 11-2 8h2v2h-2v12l-2 5v7l-2 6-1 9 3 3v-5h-2v-5l4 1v-2l2-1 4-10 1-11 3-1-1-6-3-1 2-25 2-1v-8l1-1v-7l1-4 5-1 3 3-2 6v13l-1-2h-2v10h-2v14l7 3 2-1v3h2v7h-2l-1 10-2 3-3 5-3 2h-3l-1 7-2 9-3 10-2 2 1 1v10h3l3-5 5-5 4-12h2l1-2 3-4 3-7 4-1 5 14 7 11 10 11 10 7 16 8 16 4 6 1 64 1 13 3 8 4 10 9 5 9 2 10-1 13-4 11-6 8-7 6-8 4-15 2h-36l-72-1 9 19 8 16 5 9v3h27v1l-15 1-1 4h4l4 10 6 2 2 4 1 4 6 3 4-6 2 1v2l4 2 4 3v2l7 2 3 3v2l4 1 2 5 3 3 5 1 4 4 4 6 10 9-1 3-6-3h-2l-1-5-5-2-2-1 1-2-4-1-6-5-2-3h-3v-2l-4 1 1 4 4 2-1 6-3 1-3-5-9-9-1-2h-2l-4-6-3-2v-3h-2v-2l-4-1-2-5-5-2-6-7-2-1v-2h-2l-5-5-5-2-1-3 1-2h-5v8l5 10 4 2 3 10 5 1 7 13 9 7 3 11 6 2 1 3 4 2 1 2 3 7 1 3 4 2 4 5 1 4-5-1v-2l-4-2-4-1-1-8-1 23v33l-1 9h-13l-1-53h-2l-1-6-3-1-2-5-2-4-4-6-6-10-6-8-1-5-3 1-2-1v8l5 10v2h2l10 19 4 7v3l-4-2-4-7-2-3-3-6-3 1-1 9-1 1h-21v55l-1 1h-12l1-57-9 1h-12l-2-1v-10l6-2-1-9v-3l-3-1-1-11-1-5h-2l-1-10h-2l-3-10-2-1-1-9-2-3-2-10-3-6-1-6-3-4 2-4 5 11v3l54 1-8-15-15-34-11-26-15-36-36-86-7-17 1-5 3-1 2 4v-22l-1-33-1-17-1-53 1-4-3-1-3-10v-31z" fill="#02041D"/>
<path transform="translate(437,300)" d="m0 0h29l17 40 12 29 6 15 17 41 44 105 13 30 8 18 6 11v2h-45l-9-1-14-34-13-32v-2l-92 1 1-6 16-38 1-1h56l-9-21-14-34-14-35-6-14-14 37-6 15-11 28-18 46-22 55-12 31-3 5-50-1 8-20 17-43 11-28 11-27 32-80 11-28 9-23 6-14 6-16 5-10z" fill="#FBFCFC"/>
<path transform="translate(256,299)" d="m0 0h46v291l-6 1-40-1z" fill="#FBFCFC"/>
<path transform="translate(302,299)" d="m0 0h1l1 15 4 5 4 2v2l4 1h-2l5 5 1 3 4 2v2l5 2 1 4h2v2h2v3l-4-1-4-4-2 1-1-3-2-1 1-2-4-2-5-6-8-5-1-3v39l2 1v2l5 2 1 3 6 2 4 3h5v2l3 1 3 5 9 4 2 1v2l4 2v2l4 2 5 3v2l4 1 4-1-1 3 5 2 9 2 2 2h4l-3 9-20 50-11 27-22 56-2 5-6 1v4h-16v25l-1 6-4-1h3z" fill="#02051D"/>
<path transform="translate(618,592)" d="m0 0h17l11 8 8 6v2l5 2 4 3 2 2v3l5 1 8 5v2l5 2 5 3 2 3 3 3 4-1-2-6-7-1-2-4-4-1-3-3-5-3-2-5-7-2-7-6v-2l4-1 5 1 5 4 4 1-2-5 6-1 4 5 4 3v2l5-1 2 4 6 1 9 6v2l4 1 2 3 3 1v2l5 1 4 4 5 1 3 2 2 4 6 2h4l-1-3 2-2 4 1 5 3-1 2 13 5 4 3v2l4 1 1 3 6 2 2 1 3 5-3 1v-2h-2v2h-5v11l-2 4-3-1v-2l-3-3v-2l-4 1-9-7-4-4-3-1-1-5-4 1-11-8-2-4-13-7-7-6-7-4-1-2-7-2v3l4 1v2l5 2 2 2-1 1 7 3v2l7 4 5 4 5 2v2h2l1 4 3-1 5 4 1 2 5 2 3 3 3 1 4 6 4 1 4 4v2l6 1 5 3 2 10-1 23h-2l-5-5-5-4v-2l-4-2-8-7-5-4-5-12-7-8-9-5-5-2-13-1-12 3-9 6-6 7-4 11v14l3 10 5 6v2l3 1-1 5-3-1-3-3-1 2-2-1v-3l-3-1-8-12v-3h-2l-10-15-4-5-4-4-1 3v-20l2 1 1 5-1 3 3-1 5 4 1 2 4 1-3-4-3-5-5-5-3-6-1-3-4-2-1-2-5-3-3-6-2-6-9-7-5-10v-2l-3 1v-2h-2v-2l-2-1-1-7-5-2-5-10v-8l4-1 2 1v5l7 2 3 3v2h2v2l4 2 4 5 5 3 3 5 3 1v2h2l6 7 1 4 5 1 5 8 5 5 3 1v-6l-3-2-2-4 1-3 5 3 5 2 1 3 5 4 3 1 1 2 5 3 1 5 3-1 5 3-2-4-8-7-4-6-3-2-1-2-5-1v-2l-4-2-1-4-3-1-3-4-7-3v-2l-4-2-5-5-3 3-2 4v-2l-4-2-3-3-2-5-6-2-3-5-2-5-4-1 2-4z" fill="#020210"/>
<path transform="translate(447,373)" d="m0 0 2 3 15 37 18 44 8 19v2l-56 1-8 19-10 25 3-1h89v1h-53l-1 3h-2l-1 5-5 2-6 1-3 2-7 4-6 8-2 2-6 1-7 3-4 4-8 1-5 1-2 5-10 2-2 4-4 1v-2h-2v2l-3 1 1-5 17-43 14-35 14-36 12-30 6-16 11-29z" fill="#02041D"/>
<path transform="translate(529,576)" d="m0 0 3 4 3 7v3l53 1-1 4 2 7 5 1 1 3 5 4 7 9 3 4 4 4v2l4 2 1 4h-2v2h2l1 2 5 1 2 5 3 1 1 4 2 1 4 6 3 2 1 6 5 2 1 2h-10v68h-1l-1-53h-2l-1-6-3-1-2-5-2-4-4-6-6-10-6-8-1-5-3 1-2-1v8l5 10v2h2l10 19 4 7v3l-4-2-4-7-2-3-3-6-3 1-1 9-1 1h-21v55l-1 1h-12l1-57-9 1h-12l-2-1v-10l6-2-1-9v-3l-3-1-1-11-1-5h-2l-1-10h-2l-3-10-2-1-1-9-2-3-2-10-3-6-1-6-3-4z" fill="#02041D"/>
<path transform="translate(634,348)" d="m0 0h94l-2 1v2l-4 1-1 3-6 4-11 9h-2l-1 5h-2v2l-10 6-2 3h-3v2l-6 3-3-5-5 1v3h-2v2l-3 1-2 4-8 5-5 2-2 5-6 1v2l-2 1v2h-2v2l-8 2-6-1-9-7-7-9-3-11v-11l3-10 6-9 7-6 9-4z" fill="#020210"/>
<path transform="translate(712,668)" d="m0 0 13 1 9 4 8 6 6 8 3 8v16l-4 10-7 8-6 5-6 3-5 1h-16l-12-5-6-5-6-8-3-10v-14l4-11 8-9 10-6z" fill="#FBFCFC"/>
<path transform="translate(310,668)" d="m0 0h10l10 3 8 5 5 4 7 14 1 10-2 12-6 10-9 8-11 4h-15l-10-3-9-7-6-8-3-8-1-12 3-12 8-11 5-4 10-4z" fill="#FBFCFC"/>
<path transform="translate(302,299)" d="m0 0h1l1 15 4 5 4 2v2l4 1h-2l5 5 1 3 4 2v2l5 2 1 4h2v2h2v3l-4-1-4-4-2 1-1-3-2-1 1-2-4-2-5-6-8-5-1-3v39l2 1v2l5 2 1 3 6 2 4 3h5v2l3 1 3 5 9 4 2 1v2l4 2v2l4 2 5 3v2l4 1 4-1-1 3 5 2 9 2 2 2h4l-3 9-16 40h-1v-7l-3-2-1 2v-2l-5-1v-3l-11-4v-2h-8l-2-3-5-1 1-4 6-1 1-3-7-1-9-3-6-4-11-6 1 3h-3z" fill="#02041D"/>
<path transform="translate(151,374)" d="m0 0h8l2 1v2l3-1v3h2l2 4 11 4 16 6 5 1 2 2 11 4 16 6 13 5 5 2h7l2-1v178h-1l-1-6-9 2-5 2-1 2-9 1-1-5 6-2 5-2 9-2 1-1h5l-1-32-6 1-19 3-5 1-11 1-1 3h-5v-2l-16 4-13 1-7 3-4 4-6-1-1-1v-7l7-3h9l27-4 1-2 11-1h8l6-2 21-3h4l1-18-7-1h-10l-8 2-1-1-31 2-9 2h-29v2l-4 1h-11l-1 1-15 2-5 4h-7l-5-4 1-7 3-4-1-2 8-1 5 2 1 5 17-3h19l4-1h11l11-1 3-2h30l31-2v-8l-26 1-31 1-6-1v5h-2v-8l14-1 4-1 24-1 17 1v-2l5-1 1-7h-79l-5 6-6-1-5-6h2l-1-5h2v-2l2-1h6l4 2 6 2h45l7 1 21 1 1-22-15-1-11-1-8-1-2 1-1-5 3-1 19 1 3 1h11l1-7h-2v-2l-21-2-3 1-4 1v-2h-3l-1-6h-2v-2h2l2-5h7l4 6 7 2 11 2h3l-1-15-13-3-5-2-7-1-7-3h-14v-2h-3v-2h-2l1-5 4-1 6 2h2v2l15 2 9 3v2l10 2 4-1 1-8-5-1-1-2-13-4-6-1-1-2-5-1-16-5-6-2-2-2-17-5-10-5-9-2h-6l-4 1-4-2-3-6v-5z" fill="#050821"/>
<path transform="translate(355,191)" d="m0 0 8 1 2 3v12l3 1 3 11 3 4h1l2 10 6 12 3 7 3 6h2l2 9 4 6 1 6h2l2 9h3l7 20 5 10 1 5-5 13-7 18-5 3-4-5-5-9-4-5v-3h-2l-9-14v-2h-3v-2l-3-1-1-4-2-1-2-8-4-2-6-12-4-3-1-6-3-1-2-6-5-5-3-5-3-6-3-1-1-5-2 1-4-11-3-3-7-12-3-2-3-5-3-4-6-1-3-4v-9l6-4 5 1 4 2 1 2v8l2 5 6 11 4 4h2l4 12h2v4l4 2 1 6 3-1 3 7 5 9 3 3 6 11 4 5 2 1 3 5 1 7h2l4 7v2l3 1 1 4 3-1v3l3 1 1 6h2l-1-5-1-4-3-1v-2h2v-2h3l1-3-4-2-3-10-1-5 2-1 4 4v2h2l-1-5-3-3-3-8-2-2-3-8-1-3h-2l-5-11-2-7h-2l-3-4v-9l2-1 4 3v2l6 9 2 4v3h2v-2l3 1v9l6 13 4 6 2 7 6 11 5 10 2 2 1 2h2v-5l-6-8v-3l-3-1-1-7-3-1-1 2-1-4v-6-1l-1-4-5-6-2-8-1-6-2-1-1-4-2-1-3-8-4-9-1-6h-2l-4-10-3-3-3-7-3-1-1-3-3-1-1-2v-6z" fill="#03061E"/>
<path transform="translate(479,566)" d="m0 0h1l1 7-3 5h-2l-2 8-5 12-2 3v7l-2 3-3 11h-3l1 6-2 4v2h-2l-1 6-3 7-1 7-4 9-1 3-2 1-2 10h-2l-2 11h-2l-1 9-5 15h-2l-2 12-14 1-13-1 3-3h2l2-5 2-4 2-10 3-6h2l1-6 3-7h2l2-9 4-5 6-15 2-2h1v-5l-4-4 1-4 5-4 4-13 3-1v-5l3-3 2-4h3v-6l4-4 2-1 2-6 6-8h2v-6l1-2h4l-1-3 2-4z" fill="#020210"/>
<path transform="translate(829,669)" d="m0 0h11l1 1v66l-1 1h-8l-7-7-9-11-11-13-11-14-1 45h-13v-51l1-16h10l7 7 8 10 13 16 8 9 1-38z" fill="#FBFCFC"/>
<path transform="translate(728,488)" d="m0 0 4 1 3 12-1 13-4 11-3 5h-2v-3h-2v2h-2l1-5 2-2-13-4h-8l-7-2-1 1h-7l-2-1-1 3-6 2-6-1-2-1-13-1-3-2h-15v-2h-6l-2-1h-7l-7-1h-11l1-3 6-2h13l7 2h41l10 1 39 2v-2l-16-1-4-1v-2h-44l-13-2-19-1-3-2 3-5 18-1 8-1h14l4-1 48-2h8z" fill="#020210"/>
<path transform="translate(212,669)" d="m0 0h37l1 2-2 9-8 1h-28l-5 2-2 4 1 6 7 3 19 1 9 3 8 7 2 4v12l-5 8-7 4-2 1-9 1h-36l-2-1 2-10 1-1 41-1 4-4v-6l-3-3-2-1-18-1-10-2-6-3-6-7-1-3v-12l4-6 5-4 4-2z" fill="#FBFCFC"/>
<path transform="translate(635,591)" d="m0 0h65v1l-16 1-2 1 2 7 10 6 7 3v3l5 1 14 9 5 3 2 1v2l9 3v3l5 2 7 1v-2l-4-1v-1h7v2l5 2 11 7 6 2v3l6 2 6 4 4 2 2 2 8 4 1 5h-5l-3 3-1-1-10-1v16l-2 4v-2l-5-2-6-2-5-6-4-1-3-4v-2l-4 1-2-4-8-5v-2l-6-1-1-4h-2v-2l-6-2-8-6-4-2-2-3-5-2-1-3-4-2-1-2-3-1v-3l7 1 1 3 5 2 12 9 10 5 2 2v3l4 2 8 5h3l2 5 4 1 2 4 4 2 5 4h4l1 4 3 1v2l2 1 2-15h5v-2h2v2l2-1-4-5-7-3v-3l-4-1-4-4-13-5v-3l-5-3-4 1v3l-5 1-6-3-1-4-6-2-4-2-4-3-3-1v-2l-4-1-2-3-3-1-3-3-9-5-3-1-2-3h-5l-2-3-3-2-3-4-5 1 1 4-5-1-5-4h-8l4 5 4 3 7 2 3 6 5 3 3 2 3 1 1 3 7 1 2 4 1 4-5 1-5-4v-3l-5-2-5-3-4-4-5-3-4-1-2-4-9-6v-2l-4-2-11-8-4-3z" fill="#02041D"/>
<path transform="translate(488,608)" d="m0 0h2l1 5v8l-4 8 1 10-1 5v3h3v-3h2l2-20 2-3h3v25l-2 44v34l-3 2h-8l-6-4-3-4-2-8 1-41-4-1 4-3v-9l3-9v-7l4-10 1-7z" fill="#020210"/>
<path transform="translate(463,669)" d="m0 0h13v41l3 10 5 4 2 1h13l6-4 3-5 1-24v-22l1-1h12v45l-3 10-5 7-10 6-4 1h-13l-11-4-8-7-4-9-1-4z" fill="#FBFCFC"/>
<path transform="translate(634,348)" d="m0 0h38v2h-5l-1 3-10 10-2 3h-2l-2 5h-2v2h-2v2l-5 5-3 4-2-1-2 8-3 1-3 3h-3l-2 4-3 3-3 4-4-2-1-2-2 1-4-9-1-5v-11l3-10 6-9 7-6 9-4z" fill="#02041D"/>
<path transform="translate(794,521)" d="m0 0 13 1 3 1 2 1v-2l4 1v2h16l16 1 5 1 26 1v2l8-1h4l4-3h7l6 4-1 7-4 7-1-2-6-1-5-4-12-2h-5v5l2 1-1 8-3 3h-7l-2-7-3-1-20-1-2-1-9-1-3 1-17-4h-10l-20-4-3 2 3-12 1-2h10l4 1z" fill="#02041D"/>
<path transform="translate(304,412)" d="m0 0 6 2 5 3 8 5 14 4v4l-7 1-1 3h5l2 4 4-1 4 1v2l11 3 1 3 5 2 4 2-2 12-3 3h-2l-2-4h-5v-2h-3l-3 6h-7l-4-2-26-3-5-1v-27l3 4 1-1 7 1 9 3-1-2-10-4-7-2-2-2v-14z" fill="#020210"/>
<path transform="translate(709,680)" d="m0 0h12l10 5 6 8 2 6v9l-3 7-4 6-4 1v2l-9 3h-7l-9-3-5-4-5-8-1-4v-9l4-10 7-6z" fill="#020210"/>
<path transform="translate(309,680)" d="m0 0h12l8 4 7 8 2 6v11l-4 8-5 5-4 3-7 2-11-1-7-4-5-6-3-7v-12l4-9 8-6z" fill="#020210"/>
<path transform="translate(447,373)" d="m0 0 2 3 15 37 18 44 4 10-1 3-4-8-4 1-2-1-1-5 1-7-2 4-2-1v-2l-4 1-4-4v-2h-2l-9-11-1-3h-2l-8-11-2-4-3-1v-2h-2v-8l12-32z" fill="#020211"/>
<path transform="translate(703,198)" d="m0 0h7l4 3 2-1v7l-5 8-7 2-2 4h-2l-2 4-3 4 1 7-2 2-3-2 2 5-1 6h-2l-2 9-3 4-2 4h-2v2h-2l-1 5-4 5h-2l-1 4-4 5-2 6-5 4-2 3-6 2h-21v-1h5v-2l4-1 3-3h3l2-5 5-7 4-9h2l3-10 6-11 3-1v-2l4-1 4-2 6-10 7-14h2v-5l4-2-1-3h2l-2-4 2-6z" fill="#080B23"/>
<path transform="translate(151,374)" d="m0 0h8l2 1v2l3-1v3h2l2 4 11 4 16 6 5 1 2 2 11 4 16 6 13 5 5 2h7l2-1v79l-2-1 1-19-15-1-11-1-8-1-2 1-1-5 3-1 19 1 3 1h11l1-7h-2v-2l-21-2-3 1-4 1v-2h-3l-1-6h-2v-2h2l2-5h7l4 6 7 2 11 2h3l-1-15-13-3-5-2-7-1-7-3h-14v-2h-3v-2h-2l1-5 4-1 6 2h2v2l15 2 9 3v2l10 2 4-1 1-8-5-1-1-2-13-4-6-1-1-2-5-1-16-5-6-2-2-2-17-5-10-5-9-2h-6l-4 1-4-2-3-6v-5z" fill="#02051E"/>
<path transform="translate(312,310)" d="m0 0 5 1 3 2v3l7 4 3 5 3 1v2l2 1 2 4 10 9 1 2 3 2 1 4h2v2h5l5 7 2 4 13 13 7 8 2 1v2h2l1 5-5 13-3-4-3-1-2-4-6-1 1 3-5 2-1-4-4 1-6-3-2-5-2-1-3-5-10-8v-3l6 1-1-4-6-8-8-7v-2l3-1 5 1 3 5 8 7v2l4 1 2 3 10 6 1 4 5 1-1 4h4l4-1-3-3-4-2-1-4h-2l-5-7-7-6v-2l-2-1-2-4-5-3v-2l-4-1-6-7v-2l-2-1-1-2-5-2-1-3-4-2-3-4v-2h-2l-1-4-3-1v-2l-4-1-1-4z" fill="#02041D"/>
<path transform="translate(415,520)" d="m0 0 1 3 3-1h89v1h-53l-1 3h-2l-1 5-5 2-6 1-3 2-7 4-6 8-2 2-6 1-7 3-4 4-8 1-5 1-2 5-10 2-2 4-4 1v-2h-2v2l-3 1 1-5 13-33 9 1 5 1 6-1 3 2v2h-6l2 2 2 1 9-4 2-4 9-3 7 1-1-3 2-5 3-1 7 3 4-2h3v-2h-29v2l-6 1-1-3z" fill="#02041D"/>
<path transform="translate(551,669)" d="m0 0h57l-1 11-1 1h-21v55l-1 1h-12l1-57-9 1h-12l-2-1v-10z" fill="#FBFCFC"/>
<path transform="translate(561,597)" d="m0 0h2l2 9 6 4 7 11 1 3h7l4 8v4l3 1 7 13 8 14v3l2 1-3 1h-25l-2-4v-4l-4-4-2-7-4-10-2-7-2-9-2-1-1-4-3-4-2-7v-7l2-3z" fill="#020210"/>
<path transform="translate(416,633)" d="m0 0 2 3-1 3h3l2 3-1 4h-2l-1 12 4-2 3-4h2l1 4h-2l-1 9-5 8-2 4-2 6h-2l-1 3-1-1-3 8-2 3-1 7-5 9-1 4-3 1 1 3v4h-3v-55l-1-2h2v-8l5-6 3-1 4-6 2-1 2-5 2-6z" fill="#020210"/>
<path transform="translate(382,669)" d="m0 0h12v56h40l-1 11-1 1h-49l-1-1z" fill="#FBFCFC"/>
<path transform="translate(274,592)" d="m0 0 3 1-3 3h-4v2l-4 2-1 3 5-1 14-7 2-3h12l-2 4-6 1-9 5-3 3-9 2-10 5 1 2-9 4-4 3-9 1v2l-7 1v3h-2v2l-7-1 1-4 7-4h2l1-3 8-3h4l-2-4-6 1v2l-10 4h-2v2l-9 4-8 1-6 2v2l-5 3-10 3-5 3-8 3h-3l-1 6-3 5h-12l-3-7 1-5 4-4 12 1 2-2h4v-2l7-3h4l1-2 4-1 10-4 4-2h3v-2h2v-2l18-5 5-3 11-4 13-6-1-2 10-1v-2z" fill="#050821"/>
<path transform="translate(303,366)" d="m0 0 1 2 4-1 8 6v2l5 2 21 15v2l5 1v2l4 1 4 6 10 3 1 3 5 1 2 3-5 2h-5l-3-2v-2l-7-2-5-5h-4l-1-3-7-3v-3l-6-1-5-2-4-3-2 3 6 4 3 3 5 2 3 2v3l10 2v3l6 1 1 2 5 2 5 3 2 1v4l-5 1-7-4-32-16-9-4-6-4-1 1-2 1z" fill="#020210"/>
<path transform="translate(455,523)" d="m0 0h53l3 6v3l-5-2v-3l-2-1h3v-2l-6 1h-35l4 4-5 2v-4h-2v-2l-7 1v2h3v5l-6 5-2 4-10 3-4 4h-4l-2 5-4 1v3h-2v2l-4 1-1 4-7 1-13-1-2 4-6 7h-7l-1 5-6 1-1 4h-5l1 3-4 1-4-4 1-8 2-5 4-1v-2h2v2l4-1 1-4 7-2 6-3v-2l8-3 7-1 3-4 9-3 4-1 7-9 9-5 4-2 7-1 2-5z" fill="#020210"/>
<path transform="translate(303,462)" d="m0 0 11 1 7 1 7 3h6l3 3 6 2v2l-7 1v-2h-10l-6 2h2v2l17 1 15 2-1 7-5 10-8-1h-37z" fill="#020210"/>
<path transform="translate(575,202)" d="m0 0 6 2 1 3-3 14-2 7-1 12h-2v8l-2 16-3 7 5 1 1-6 4-2 1 2-2 9-2 12-2 6-2 10-3 9-2 10-2 9v13h-3-2l-2 4-2-10 3-7 2-12 1-2v-10h2l1-5-5 4-2-3-4 1-4-2-2-2 1-5 6-1 1 3h4l1-21 2-6 2-12 2-10 2-9 3-24 2-12z" fill="#060922"/>
<path transform="translate(381,669)" d="m0 0h1l1 68-3-1v-40l-2-1-2 5-12 17-4 5-1 6h-3v2h-2v3h-2l-2 5-7 14h-3l-1 4-1 3h-2l-2 4-1 5-3 2-5 10-3 1-1 5h-2l-1 7 4-3h4l1-6 4-4 1-3 3-2 3-6 4-5 6-10v-2h2l3-9 2-2 1-4 2-2 3 1 2-5 3-2 1 2-5 10v3l-4 2v4l-3 1-2 3-2 6h-2l-1 7-4 4-2 7-5 5-2 5h-2v2h-2l-1 11-2 3v2l-4-1-1 2-8-6-1-3v-4l-4-2 1-7 4-7 4-2 1-3 3-3 1-5 5-5 5-6 4-7 1-4h3v-9h2v2l3-1 5-8 1-2 4-4 9-15h2l2-5 8-11 2-3z" fill="#060921"/>
<path transform="translate(280,612)" d="m0 0 3 1-1 3-2 2-6 2v2l-4 2-2 2v-3l-4 1 1 2h7l13-8 1-1h6l-5 5-6 2v2l-6 3-10 7-9 3-1 4-5 1-1 3-7 3-4 3-9 3-2 4-6 3h-3l-5 1v2l-5-2v-3l6-1v-5h-2v2l-5-1-2-3 1-5 14-4 4-4 15-5v-2l7-3 10-6 16-8z" fill="#02041D"/>
<path transform="translate(482,196)" d="m0 0h8l1 5-1 7v3l1 10 1 28 2 10v22l-4 2-1-3h-3l1 7 2 2 1 15 4 46v4h2l-1 6-3 4-8-19 1-12-2-5h3v-6l-2-3-1-8v-13l-3-19v-7l7-3-1-5-1-26-1-9v-23l-2-5z" fill="#03061E"/>
<path transform="translate(836,336)" d="m0 0 10 2 2 9-2 1v2h-8l-5-1-1 3-6 1-2 4-2 2-7 1-6 3-1 2-8 2-6 3-1 3-2 2-5-1-10 5v2l-8 1v3l-6 2-3 3v-2l-12 7-3 4-4 1-8 3-2 2-4 3-7 2-5 1v5l-10 1-4 3h-10l-1-5 5-1 5 1 9-5 2-4 5-1 2 1v-2h3v-2l4 1 1-3 11-5h2l2-4 5-3 6-1 1-3 8-1 6-4 1-2 8-3 6-4h2v-2l7-1 3-3 5-4 12-3 1-3 12-5 1-3 9-3 1-4z" fill="#090C24"/>
<path transform="translate(708,470)" d="m0 0 5 1v5l8 6v2h2l1-2v3h-2l-1 4-2-1h-28l-4 1h-29v2h-20l-6-1v2l-4-1-1-2 1-3h2v-2l10-1v-3l24-3 21-2 18 1 2-4z" fill="#020210"/>
<path transform="translate(592,680)" d="m0 0h7l4 2 1 5 3 1 1 6 5 11 2 5v3l5 1 3 13 3 6v3l2 1v4l5 1v7l3 3 1 9 3 1 2 9h2l4 8-1 4 3 1 2 5 3 9 5 11v2h5v2h2l1 9-4 4h-7l-4-2h-1l-1-8 2-1-3-12-1-3-2-3-1-5h-2l-5-14-3-5-4-10-2-3-1-7-4-4-5-14-3-4-1-5-3-6-1-5-4-8-2-6-2-2-4-11v-3h-2v-2l-6-1z" fill="#070A23"/>
<path transform="translate(396,510)" d="m0 0h16l4 1v2h2l-1 7-3 3 2 1 4 1v-2h29v2l-8 3-7-3-2 1-1 7-4 1-4-1-8 3-2 4-10 4-3-2v-2l4-1 2 1v-2l-7-1-5 1-8-2-2-1 3-10 5-13z" fill="#020210"/>
<path transform="translate(625,519)" d="m0 0 2 1 3-1 12 1 3 1 11 1v2h19l18 3 11 1 4 3 6 3h6l1-2v4l-9 6-7 2h-9l-8-4v-2h-11l-11-6-8 1-9-3-25-5z" fill="#020210"/>
<path transform="translate(875,393)" d="m0 0 5 1 5 3 2 5-3 6-6 2h-8l-2-2-12 1-1 3-7-1-1 3-13 2-4 3-5 1-14 4-12 3-7 2-7 1-6 2-23 6 2 4h-4l-6-4 1-3 9-2 6-3 8-1 2-3h5l10-4 16-3 17-5 5-3h5l1-3h8l5-2 12-2v-2l10-2 2-6z" fill="#040720"/>
<path transform="translate(729,240)" d="m0 0 7 2v6l-2 5-4 3-5 1v4l-8 6-6 7v6l-9 5-1 5-4 8 8 1v1h-36l3-1 1-5 2-2v-2h3l5-5 4-6 2-5 3-1 4-6 1-2 7-8 2 1-2 5-3 7-1 2h-3l-1 5 2 4 6-5 1-3h2l1-7 5-3 3-6 6-4 1-1v-7l3-4z" fill="#02041D"/>
<path transform="translate(331,275)" d="m0 0h4l3 8 5 5v2h2l5 9 2 5 4 1 3 7 6 3 3 9 6 8h2l1 4h2l2 5 7 10v2h2l6 9h2l2-2 1 6-4 11-2-2h-3l-2-6-9-11-11-13v-2l-2-1v-4l4 1-2-5-6-8-3-2-1-3-2-1-3-6-5-5v-3l-5-2-5-10-3-3-3-4h-3l-4-4-1-4 2-3z" fill="#02051E"/>
<path transform="translate(637,669)" d="m0 0h12l1 26v33l-1 9h-12z" fill="#FBFCFC"/>
<path transform="translate(551,156)" d="m0 0h4v2l4 2 1 1-1 9-1 3h-2v3h-2v11l-2 9 7 2 1 3h-2l-1 3h-2l-2 4h-3v10l1 6-2 1-1 18-1 12-2 2-1 7h-4l-1-8 1-5v-7l-1-4 3-1 1-15 4-46v-2l-2-2h2l-3-6 1-5 3-1 1-4z" fill="#0D1027"/>
<path transform="translate(428,179)" d="m0 0 1 2 3 1 1 2 1 9 1 3 1 13h2l1 7-1 2h2l3 14 2 2 1 8 2 14 2 5v3l2 1 1 14 2 1-1 1 2 1 3 10-1 4-1 3h9v1h-16l4-3-2-3-2 2v-8l-1-6h-1l-2-9-3-7-1-9-2-6-3-12-2-14-3-9-2-8-2-1-1-14-6-5 1-6z" fill="#03061F"/>
<path transform="translate(518,158)" d="m0 0 6 2 3 3v6l-3 7h-2v84l-2 19-3 1-2-6v-98l-3-5-1-7 5-5z" fill="#10132A"/>
<path transform="translate(794,521)" d="m0 0 13 1 3 1 2 1v-2l4 1v2h16l16 1 5 1 26 1v2l8-1h4l4-3h7l6 4-1 7-4 7-1-2-6-1-5-4-12-2h-5l-1 2h-3l-4-2-9-2-22-2-3-1h-8l-2-1-27-1h-6l-7-1-2-5h10l4 1z" fill="#080B23"/>
<path transform="translate(506,608)" d="m0 0 2 2 2 11-1 24v19l-1 3 3 1-1 2v30l-1 16-4 6-2 2-3-1v-2-17-4-12l2-28 2-43v-7z" fill="#020210"/>
<path transform="translate(172,316)" d="m0 0h9l4 3 1 7-2 3h3v3h3v2h2v2l4 1 4 6 5 2v2l10 4v2l8 2v2l14 4 1 3 15 8 1 1 1-30h1v38l-1-4-10-2-1-3-8-4-6-1-1-4-10-2-4-3-8-5-4-2-5-1-5-2-2 3h-3v-2h-4l-2-3v-7l3-4v-2l-7-1-2 1v-2l-4-1-3-8 3-1z" fill="#060922"/>
<path transform="translate(151,374)" d="m0 0h8l2 1v2l3-1v3h2l2 4 11 4 16 6 5 1 2 2 11 4 16 6 13 5 5 2h7l2-1v16h-1v-7l-5-1-1-2-13-4-6-1-1-2-5-1-16-5-6-2-2-2-17-5-10-5-9-2h-6l-4 1-4-2-3-6v-5z" fill="#0A0D25"/>
<path transform="translate(585,594)" d="m0 0 3 3 1 5 5 1 1 3 5 4 7 9 3 4 4 4v2l4 2 1 4h-2v2h2l1 2 5 1 2 5 3 1 1 4 2 1 4 6 3 2 1 6 5 2 1 2h-11v6l-5-5-7-11-3-5-2-2-1-4-3-5-5-5v-2h-2l-6-11-2-1-6-11-2-2v-4l-4-2-4-4-1-5h2z" fill="#020210"/>
<path transform="translate(475,753)" d="m0 0 2 1v14l-1 17-1 2-1 21-2 12v14l2 5-1 6-2 3h-10l-4-5v-6l5-5 2-1 2-29 2-17 3-17 1-11z" fill="#0D1028"/>
<path transform="translate(234,569)" d="m0 0h5l-3 3-9 3-10 4v2l-15 2-5 2-10 2-4 2-8 1-13 3-7 4-2 4-5 2 2 3v7l-3 2-5-1-4-3v-4h2l1-3h4l-3-5-1-3h-2v-5l5-4 14 2 3-2h5l4-2 16-4 11-2 16-4 9-3z" fill="#040720"/>
<path transform="translate(255,531)" d="m0 0h1v59h-1l-1-6-9 2-5 2-1 2-9 1-1-5 6-2 5-2 9-2 1-1h5l-1-32-6 1-19 3-5 1-11 1-1 3h-5v-2l-16 4-13 1-7 3-4 4-6-1-1-1v-7l7-3h9l27-4 1-2 11-1h8l6-2 21-3h4z" fill="#02051E"/>
<path transform="translate(587,688)" d="m0 0h2v2h2l3 7 2 5v3l3-1 1 2 1 10 4 9 3 8v3h2l2 7 2 4 3 5 2 10h2l1 9h2l1 9h4v3l3 1v12l-7 1-5-2-1-2v-11l-4-13-3-9h-1l-3-12-3-6h-1l-1-6-1-3-2-7-3-7-3-8-1-4-2-6h-2v-6z" fill="#02051E"/>
<path transform="translate(512,754)" d="m0 0 2 2 1 3 2 45v42l2 1 1 7-2 4-6 1-5-3v-7l2-3v-27l1-48v-8z" fill="#02051E"/>
<path transform="translate(592,754)" d="m0 0 4 2v4h2l1 7 3 9 3 13 3 9 4 8 2 3 1 12 4 13 1 3 4 2v7l-4 4h-2v2l-4 1-3-5-1-1v-8l2-4-1-6-2-5-3-13-3-5-1-6-2-6-2-9-6-19-1-11z" fill="#060921"/>
<path transform="translate(720,348)" d="m0 0h8l-2 1v2l-4 1-1 3-6 4-11 9h-2l-1 5h-2v2l-10 6-2 3h-3v2l-6 3-3-5-5 1v3h-2v2l-3 1-2 4-8 5-5 2-2 5-6 1v2l-2 1v2h-2v2l-8 2-3-1 2-2v-4h2l1-2 3 1 2-4 2-1 1-3 7-3 3-3 3-1 4-7 12-7 3-1 1-4h3v5l3-1 1 2 8-4 1-5 3-1 5-4 6-4 1-5 8-1 8-7z" fill="#02041D"/>
<path transform="translate(758,233)" d="m0 0 6 3 2 8-3 6-5 3-4-1v-2l-4 4-4 7-4 4-7 8-3 2-1 4-4 1-1 4h-4l-2 6-1 2-3 1v2l-4 1-2 4-5-1 1-6h4v-4l2-1 3-5 5-4 1-3 6-5 1-3 7-6 3-5 4-1 2-6 4-2 1-8 4-4 5-1z" fill="#090C25"/>
<path transform="translate(661,211)" d="m0 0 1 2 5 1 4 2 1 4h-2l-5 5h-2l-2 7-2 5h-2l-1 4-4 10h-2v5l-3 3v5h-3l-1 7-4 4-4 10-2 6-3 3 1 3-1 4-9 1-1-5 2-1v-2h2l1-4 3-5 3-9 2-4 3-3 6-14 1-5h2l3-9 2-1v-5l4-2 2-9h2v-8l1-4z" fill="#050820"/>
<path transform="translate(388,172)" d="m0 0 6 1 4 3 1 7-3 7 6 18 3 7 7 20 1 5h2l3 14v5l-4-2-3-9h-2l-3-8-2-2-2-12-4-10-3-4-1-10-4-10-3-1-2-4-3-3 1-8 2-3z" fill="#0F1229"/>
<path transform="translate(842,488)" d="m0 0 6 2v2l21-1 1-3h8l2 2v8l-3 3h-6l-2-3-3-1h-18l-2 3 2 1-4 2-6-1-3-4-6-1h-14l-33 1v15h-1v-19l8-2h32l11-2h6l2-1 2 1z" fill="#070A22"/>
<path transform="translate(461,703)" d="m0 0h2l1 14-4-2v6l-1 2-1 10-2 5-2 15-2 6-2 11-2 7-3 20-2 14 1 3-3 5h-6l-2-1-1-5 3-10 1-3 2-1 4-20v-10l3-3 4-18v-5l2-6 1-10 2-2 3-13z" fill="#050820"/>
<path transform="translate(337,507)" d="m0 0 6 1-1 7-4 8-7 2-17 2-7 2h-4v-10l10-1-1-2-9 1v-8l4-1h27z" fill="#020210"/>
<path transform="translate(772,600)" d="m0 0h10l1 3 10 3 6 2v2l6 1 10 3 1 2 8 1 2 3 8 4 14 4 10 1 3 3v7l-3 3-5 1-5-3-4-4-1-3-10-2-4-3-4-2-4-3-9-1-7-4-6-3h-4v-2l-3-1-9-4-8-1-4-6z" fill="#040720"/>
<path transform="translate(704,592)" d="m0 0h13l-2 1 3 3 9 2 1 3 10 5 9 4 7 3 16 9 9 4 3 2 6 2 6 3v2h5l6 4 2 5h-2v2h2l-1 2h-6l-3-2v-4l-9-3-5-4-10-4-4-4-10-4-2-1-4-3-7-3v-2l-5-1-9-5-5-1v-2l-5-2-13-6-5-1z" fill="#02051E"/>
<path transform="translate(886,428)" d="m0 0h5l3 3 2 3-1 8-3 3h-3v2l-4-1v-2l-5-2h-9l-7 1-6 2h-11v2h-7l-1 1h-9v2l-17 1v2h-13v-3l3-2h7l8-1v-2l14-2 20-3 2-1 11-1v-2h9l7-1 2-5z" fill="#070A22"/>
<path transform="translate(443,176)" d="m0 0h9l1 7 2 1-2 6 1 2 1 11 1 5 1 1v8l1 7 2 1-1 3 2 10v9l2 1v15l-2-1-5-17-3-10-1-10-2-6-1-11-1-2-2-13-4-4-2-5v-6h2z" fill="#040720"/>
<path transform="translate(426,242)" d="m0 0h6l1 3-1 4 2 8 2 7h1l3 15 5 15 1 2-1 3 2 1-10 1h-13l-2-7-3-8-3-9-2-5-3-1v-7l5-1 2 6 4 5 1 3v6l3 9 4 2 4 1 3-1 1-4-2-1-2-11-2-4-2-10-2-3-2-13-3-1 1-3h2z" fill="#02041D"/>
<path transform="translate(544,603)" d="m0 0 4 1 1 3 4 4-1 4h2v2h2l4 9 4 13 2 4v4l4 1 1 8 4 4v6 3h-12l-2-5-3-9-2-16h-2l-3-13-3-5v-13l-4-1z" fill="#020210"/>
<path transform="translate(293,229)" d="m0 0 9 2 2 3v8l-3 5-6 1 1 7 1 4h4l1 4 4 5 2 1v3l4 1 5 7 5 5 7 11 7 8-1 2-5-5-8-6-3-5-5-5-1-3-5-2-4-4-1-4-5-5-7-4 1-3-9-4 1-3 2-3h6l-1-1 4-5-3-1-3-3v-6l2-4z" fill="#02051E"/>
<path transform="translate(607,236)" d="m0 0h2l1 5-3 6-4 17-4 11-2 2-8 26-1 3 1 5-1 2v5l-4 2-2 4-6 5v-9h2l1-5-2 1 1-8 2-3h2l2-8 2-5 1-8 3-1 2-10 2-3 3-14h2l2-12 2-4h2z" fill="#03061F"/>
<path transform="translate(760,608)" d="m0 0h6l12 5 6 2v2l7 2v2l9 2 18 9h7l1 4h6l2 3 9 4h3 6l-2 1 1 4h2l-1 3-3 2h-6l-4-4-7-2-6-5-9-5-1 2-3-3-5-1-8-3v-2l-5-1-5-4-6-3-3-2-8-4h-5l-2-4h-6z" fill="#02051E"/>
<path transform="translate(651,688)" d="m0 0 4 2 4 6 8 11 2 5h2l4 8 5 7 2 1v3l5-1 1 3 5 2-4 1v3l9 14 4 4 2 4 3 5v2h4l1 5 3 1 2 7h2l1 4h5l2 5-2 5-5 2-3-2v-3l-2-1-1-6-4-5-3-5-6-11-5-6-2-2-2-5-4-7-5-5-2-5-4-4-3-6-13-18-2-5h-2l-1-5h-2l-3-4z" fill="#02041D"/>
<path transform="translate(140,430)" d="m0 0 10 3 4 4 13 2 2 1h8l1 2 11 1 9 1 3 2 2 1 12 2v3l-8 1-1-1h-7l-7-3-10-1-2-1-21-2v-2l-8 2v-2l-10 4h-3v-2l-4-1-3-4 1-4 4-5z" fill="#0A0D25"/>
<path transform="translate(207,268)" d="m0 0h6v2l5 2 1 4-1 5h2l1 3 3 2v2l4 2 8 5 4 1 2 5 2 2 8 3v2h2l1-8h1v17l-6-3-7-4v-2h-2l-1-4-5-2-2 1-4-5-6-4-1-4-4-1-6-3-4 1-5-1-2-5 1-8z" fill="#0B0D26"/>
<path transform="translate(340,495)" d="m0 0 5 1 3 1-3 10-2 3v-2l-3 1-3-1-4 1h-31v-13z" fill="#02041D"/>
<path transform="translate(317,738)" d="m0 0 3 1-1 5h-2l-2 4-3 3-1 7-1 2-6 3-2 5-5 5-4 6h-3l-4 16-4 3h-2l-1 2v-2l-5-1-3-8 3-5 7-3 1-3 2 1v-2h2l2-5 4-2v-2h2v-2h3l-1-4h2v-2l4-2 4-8 1-4 3-4 4-1 2 1z" fill="#080B23"/>
<path transform="translate(461,160)" d="m0 0 8 1v2l3-1 2 10-3 6 1 20 2 11v19l-3 1-2-1-1-3-3-33-2-15-4-1-3-5 2-7z" fill="#11142B"/>
<path transform="translate(564,680)" d="m0 0h9v46l-1 11-2-1-4-16-2-4-1-8-3-7-1-11-2-6v-3z" fill="#02051E"/>
<path transform="translate(602,162)" d="m0 0h9l2 5 2 1h-2l1 6-4 2-4 3v9l-3 6-3 17-3 10h-2l-1 6-4 1v-8l7-28 2-10v-5l-2-7 1-5z" fill="#050820"/>
<path transform="translate(484,656)" d="m0 0h2l1 5 2 3v-2l4 1v21l-2 11-2 3h-2l-1-18 1-5-3 1 1 4-1 5-2 6-1 11-2 8h-1v-6h-2v6h-1l1-41 2-2 3-4 2-6z" fill="#02041D"/>
<path transform="translate(641,193)" d="m0 0 6 2 3 3-1 8h-2v2l-6 2-5 14-3 9-2 8h-2v3h-2l-1 6-3 6-3 7-5 1 1-8h2l1-9 3-4 5-11 1-8h2l1-7 4-9-1-8 3-5z" fill="#0D1027"/>
<path transform="translate(692,396)" d="m0 0h2l2 8 4-1-2 4-8 5-2 2 2 4 2 1-2 1h-39l4-4 7-2 9-5h2v-3l8-4 1-2z" fill="#02041D"/>
<path transform="translate(396,737)" d="m0 0 3 1-5 14-3 4-1 7-3 3-4 8-2 9-2 2-2 6h-2l-1 7-4 5-2 4v5h-2l-2 4-4-1v-7l4-8 3-4 4-10 1-2h2l1-7 2-5 6-12 4-9 2-1 1-10 5-2z" fill="#02051E"/>
<path transform="translate(142,458)" d="m0 0 9 2 1 2 24 3 32 2v2h11v3h-27l-24-1-2 2-5-1-1-2-12-1v2h-8v-2l-3-1-1-5h2l2-4z" fill="#02051E"/>
<path transform="translate(177,367)" d="m0 0h5l2 4h2v2l5-1 1 3 11 3v2l15 5 4 3 9 3v2h7l2 1v2l7 2 5 2h3v-17h1v29h-1v-6l-5-1-10-3-3-3-8-3h-4v-2l-7-2-9-3-12-7-10-4-13-2-2-6z" fill="#02051E"/>
<path transform="translate(620,528)" d="m0 0h7l4 3h6l4 3 3-1 9 2 3 1v2h8l1 2 7 1 11 1 2 2-27 1-22-1-7-3-10-5-2-5z" fill="#020210"/>
<path transform="translate(870,456)" d="m0 0h5l2 1v5l3 1h-2l1 7-4-1-2 2-5-1v-2l-18 1-5 1h-17v6l-4 2-5-2-2-6 3-6h18l20-2h6l1-3z" fill="#04071F"/>
<path transform="translate(810,283)" d="m0 0 7 2 6 5v3h-2l-1 6-5 3-9-1-7 3-12 10-7 5h-2l-1 3-5 2-1 2-3 1-1-4 7-12h2v6l8-5 5-5 5-2 2-4 4-5 1-6 5-5z" fill="#080B23"/>
<path transform="translate(715,738)" d="m0 0h5l5 10 7 8h3l3 8 6 5 1 2 4 1v2l4 1 3 1 1 3-1 2 2 1-1 7-6 1-6-2-4-5h-2l1-3h2v-2h-2v-3h-2l-2-4v-3l-4-1-1-4h-2v-3l-5-5-2-4-2-1-4-6-3-1 2-1z" fill="#080B23"/>
<path transform="translate(779,524)" d="m0 0h2l2 2 12 1 27 1 7 1h5l1 1 23 2 9 2 1 3-6 2-16-1-6-1-16-1-8-2-1-1h-13v-2l-6 1h-12l-5-1z" fill="#020210"/>
<path transform="translate(647,348)" d="m0 0h18l-5 6-4-1 1 4-3 4h-2l-2 4-5 4h-2l-2 6h-2l-1 2-4 5-4 3h-3v2h-2v2h-2l-1 2-1-3-2-1 3-4h2l2-5 4-6 7-8 3-4h2l2-6h2v-2l2-2z" fill="#020210"/>
<path transform="translate(255,250)" d="m0 0 5 1 4 4 3 7 2 3 3 1v2h2l2 2 5 4 2 4 3 2v2l2 1 4 4 4 2 6 9v1h-14v-1h6l-1-2-3-1-1-4-1-3-6-2-2-1-4-7-4-4v-2h-5l-3-5-9-3-4-3-1-6 2-4z" fill="#040720"/>
<path transform="translate(802,382)" d="m0 0 5 2 1 8-3 2h-8l-4 2-18 6v2l-7 3-6 2-4 2-6 1-4 3h-5l-1-4 4-1 1-2 5-4 12-3 11-4h2v-3l9-2 6-2 1-3 6-3z" fill="#03061F"/>
<path transform="translate(286,617)" d="m0 0h6l-5 5-6 2v2l-6 3-10 7-9 3-1 4-5 1-1 3-7 3-4 3-9 3-2 4-6 3h-3l-5 1v2l-5-2v-3l6-1v-4l3-1 7-1 11-6 2-2h3l1-3 10-3v-4l12-6h2l-1-3 8-1 13-8z" fill="#02051E"/>
<path transform="translate(522,559)" d="m0 0 2 2 3 9-1 4-1 2 2 1v9h4l-1 9 1 13h2l1 16-2 8-2-1v-2h-2l-2-15-2-3-2-20-1-2v-7l-1-4v-14z" fill="#02041D"/>
<path transform="translate(633,467)" d="m0 0h69v2h-6l-5 1-2-1h-16l-1 1h-16v5l-1 1-7 1h-16v2l-8 1-3-2-1-4 1-3h5l3-1 1-2z" fill="#020210"/>
<path transform="translate(791,569)" d="m0 0 8 1 18 4 8 2 16 3 4 2 9 2 9 1 1 4-2 4-6 1-3-2v-2h-5l-1-1-9-2-7-3h-7v-2l-7 1-3-3-13-4h-8v-2l-3-1z" fill="#02041D"/>
<path transform="translate(649,728)" d="m0 0h1v8l3 1 5 8 3 3v4h2l1 5 3 1 3 8 5 8 3 1 2 9 4 2-1 3h3l1 3-1 2 2 1-3 4h-6l-2-3-1-9-4-4-2-7h-2l-2-5v-2l-2-1-4-7-2-5-7-14-2-1-1-4z" fill="#02051E"/>
<path transform="translate(520,719)" d="m0 0 2 1 1 10 2 25 1 44 2 3-2 4-7-1 1-10-1-38v-21h-1v-8l1-5z" fill="#03061F"/>
<path transform="translate(416,737)" d="m0 0h5l-4 15-2 9-2 3-1 8-2 2 1 6 1 3h-2l-2 6h-2v2h-6l-1-2-3-1-1-2v-7l1-3 6-1 2-4v-3h2l2-5 1-2 1-9h2l3-10z" fill="#0B0E26"/>
<path transform="translate(417,494)" d="m0 0 9 2-3 10-4 9-1-2h-2v-2h-23l6-16 1 2 15-1z" fill="#02041D"/>
<path transform="translate(336,220)" d="m0 0 6 1 3 4v3h2l3 9 6 7 2 4v3l3 1 1 3 2 1v4l3 1 5 12v6l-4-1-5-10-2-2v-3l-3-2-3-6v-2l-3-1v-4h-2l-2-2-2-9h-2v-2l-3-1-3-3-4-3v-6z" fill="#02051E"/>
<path transform="translate(430,423)" d="m0 0 3 3 6 8 12 13 2 1 1 8 1 3-5-2-8-6v-3h-5l-5-4-6-5-3-1 1-7 2-5h3z" fill="#020210"/>
<path transform="translate(331,534)" d="m0 0h2l-1 6-5 12h-2v-2h-2l-1 3-10 3-6 1-2-4v-13l9-1h9l3-4z" fill="#020210"/>
<path transform="translate(766,262)" d="m0 0h6l2 2-1 2h2l1 5-5 3-6 2-8 7-3 1-2 4-3 3-2 4-6 3 7 1v1h-37v-1l23-1 6-9 5-3 2-4 5-3 2-3 3-1 4-4v-6l1-2z" fill="#03061F"/>
<path transform="translate(795,334)" d="m0 0 7 1 3 2-2 6-9 1h-2-3v2l-12 7-10 7-9 5-10 7-9 6-15 9-2-1v-2l13-8 2-4 5-1 2-2 5-2 5-3h2v-2l12-7v-3l10-4 4-3h3v-2h2v-2l-2-1h3 2l3-4h2z" fill="#02041D"/>
<path transform="translate(543,808)" d="m0 0h6v16l1 14 2 4 1 3 2 1-1 5-4 4-7-1v-2h-2l-2-4 1-5 3-2v-19l-2-10z" fill="#02051E"/>
<path transform="translate(830,558)" d="m0 0h7l10 2 26 4 7-1 5 5-3 7-5 1-3-3v-3h-7v-2l-19-1-16-3-3-1-1-3z" fill="#02041D"/>
<path transform="translate(610,486)" d="m0 0h11l1 3-4 4-2 3h-8l-6-1-4 1-16 1-6 1h-21l1-3 9-1h6l3-2h10l7-1 2-2 14-2z" fill="#020210"/>
<path transform="translate(839,604)" d="m0 0h8l1 3 8 2 8 1 1 2h13l5 2 1 6-5 5-5 1-7-5v-2l-18-5-3-3-8-3-1-3z" fill="#0E1129"/>
<path transform="translate(557,781)" d="m0 0 5 1 3 8 2 12 2 13 2 10 1 6-2 3h-6l-3-5v-4-17l-3-22z" fill="#060921"/>
<path transform="translate(574,538)" d="m0 0h12v4h-2l8 14 8 16 6 13-1 4-5-6 1-2-6-6h3l-1-4-6-2-5-5-6-4 1-5 1-2h3l-2-4-7-4z" fill="#020211"/>
<path transform="translate(255,497)" d="m0 0h1v20h-1v-7l-26 1-31 1-6-1v5h-2v-8l14-1 4-1 24-1 17 1v-2l5-1z" fill="#02051E"/>
<path transform="translate(190,533)" d="m0 0h22v2l-14 3-15 2-17 1-7 2h-5l-1 3-8 3-1-5h-2l1-4 2-2 5-1h15l17-2 1-1z" fill="#02051E"/>
<path transform="translate(612,462)" d="m0 0 21 3 64 1v1h-64l-1 2-2-1-1 3-16 3-7 2h-2v-2l-2 1h-6l3-3 6-1 1-6z" fill="#020210"/>
<path transform="translate(754,569)" d="m0 0 8 2 21 6 8 1 4 2v2l10 1 7 1 3 3-5 5-6-1-7-4h-5v-2l-8-1-2-2-9-1v-2l-14-5-1 2-3-1v-2l-4-1z" fill="#02041D"/>
<path transform="translate(774,540)" d="m0 0 7 1 18 2 7 2 13 2h13v3h2l2 7h-3v-3l-7 1v-2l-11-1-1-1h-10l-15-4-10-1-3-1-2 3h-3l2-5z" fill="#02041D"/>
<path transform="translate(209,300)" d="m0 0h6l2 6 4 1 5 7 11 7 3 1v2l12 8 2-2 1-11h1v22l-5-5-8-5-3-1v-3l-5-2-5-4-6-2 1-3-5-2-7-3-5-1-2-6z" fill="#02041D"/>
<path transform="translate(646,754)" d="m0 0 3 1 1 4 4 1 1 6 7 15 1 2 3 1 1 4-1 2 5 2 1 5-2 3h-5l-3-4v-3h-3l-3-12-2-3v-3h-2l-2-7-5-11z" fill="#02051E"/>
<path transform="translate(615,266)" d="m0 0h3l-1 8-2 14h-5l-1 4-1 5-1 9-12 7h-2l2-6h3l-1-3 3-2 4-14h2l1-6h2l2-10z" fill="#02041D"/>
<path transform="translate(587,472)" d="m0 0 3 1-1 4 4 1 1 2-2 1 1 2-3 3-11-1-17 4-7 2-2-4 5-1 2 1 2-5 3-2 9-1 1-2z" fill="#020210"/>
<path transform="translate(800,457)" d="m0 0 16 1v6l-16 2-7 2h-13l-1 1 3 2-5 1-1 3-6-13 2-1v2l18-2 3-1 6 1z" fill="#02051E"/>
<path transform="translate(388,821)" d="m0 0 3 1v10l-4 1 2 6v9l-9 2-5-2-1-1v-6l3-6 4-3h3v-6l1-2h2z" fill="#060922"/>
<path transform="translate(405,483)" d="m0 0 3 2v2l17-1 2 2 2-2-1 7-4 4-7-2-2 2h-15l1-7 3-6z" fill="#020210"/>
<path transform="translate(500,737)" d="m0 0 3 1h-2l1 4v26l-1 9 2 1-2 4 2 1-3 3-5-1-1-1v-5l1-1 1-15v-24l-4-1z" fill="#02041D"/>
<path transform="translate(415,783)" d="m0 0h4l-2 10-3 10-1 11-1 6-4 4-4-1-2-3 1-9h2l1-4 2-7h2l2-11z" fill="#060922"/>
<path transform="translate(415,455)" d="m0 0h1v6l4-2 2-2 7 3 7 4 12 6-2 2-7 1-6-1-5-3h-9l-6-2-1-2 1-1 1-8z" fill="#020210"/>
<path transform="translate(261,628)" d="m0 0h4v2l-13 7-1 3-10 4-1 2-7 4-11 6h-5l1-4 3-1 4-5 3-1 2 1 2-4 9-4 8-3-2-1 9-4v-1z" fill="#020210"/>
<path transform="translate(540,708)" d="m0 0 2 1 2 9 1 12 2 7 2 15 1 2 1 8-5 2-2-3-2-25h-2l-1-19-1-5z" fill="#02041D"/>
<path transform="translate(482,585)" d="m0 0 4 2-1 6-2 7v8l-1 1-2 11h-4l-4 1-1-3v-9l5-2-2-4 1-2h2l1-8z" fill="#020210"/>
<path transform="translate(845,394)" d="m0 0h2l1 6-9 3-6 1-12 4-6 3-3-1-1-5 2-4 7-1 10-2 2-1v-2h8z" fill="#02041D"/>
<path transform="translate(499,559)" d="m0 0h3l1 7v7l-2 4-1 9 2 5-1 6h-2l-1 3-2-3-2 3h-2l1-14 2-10 3-7v-9z" fill="#020210"/>
<path transform="translate(574,511)" d="m0 0 13 1 2 1 12 1v2l4 2-10 2-1 3-5 1-10-3-7-5v-4z" fill="#020210"/>
<path transform="translate(784,413)" d="m0 0 3 1-2 5-5 2h-3l-1 2-8 1-6 2-4 2v1l-8 2-6 1-4 1-2-2 1-2 10-4 12-4 8-3 11-3z" fill="#02051E"/>
<path transform="translate(280,691)" d="m0 0 1 3-2 7-2 2-5 1-2 5-2 3-5 2-5 4-7 7-1-2 1-9h5l1-5 5-1 1-3 4-1 3-4h2l2-4 3-3z" fill="#02041D"/>
<path transform="translate(565,681)" d="m0 0h7v39l-2-1-2-15h-2l-4-15v-5z" fill="#020210"/>
<path transform="translate(439,591)" d="m0 0h3l-1 8-6 8-2 7-6 5-4-1-1-8 5-2 2-6 8-10z" fill="#020210"/>
<path transform="translate(461,421)" d="m0 0 4 1 1 2 2-1 8 19-1 3h-2l-1 4-3-5-5-5v-5l-3-1-4-8 3-1z" fill="#02041D"/>
<path transform="translate(696,349)" d="m0 0 2 1v2h-2v2l-8 7-5 4-1-3 1-4-3-1-3 3h-2l-1 4-5 5-1 2h-4v-3h2l2-4v-2l-4-3v-2h2v-3h2l1-3 1 2-1 3h-2v2l9-2 6-5h2v3h2v3l5-3z" fill="#02041D"/>
<path transform="translate(541,654)" d="m0 0 5 2 2 10 1 3 2 1-1 10 2 1-6 2-2-1-1-9-2-6-1-2h2l-3-5-2 3-2-6z" fill="#02051E"/>
<path transform="translate(801,318)" d="m0 0 4 1 1 3-1 4-8 2-5 4-8 4h-2v2l-10 6-1 2h-3l-1 2-2-1 1-3 8-5v-2l7-3 7-5 4-5h4v-2h2v-2z" fill="#02051E"/>
<path transform="translate(564,419)" d="m0 0 3 1 2 4-1 4-6 2-1 5-4 3h-2l1 3-4 5-1 2h-4l-1-3 4-5 1-3 2-1 4-9 2-4 4-1z" fill="#020210"/>
<path transform="translate(286,727)" d="m0 0 1 4-5 5h-2l-2 4-2 3h-2l-1 2-5 6-3 6-3 3h-6l-2-2 1-5 8-3 3-1v-2h2l2-4 2-3v-2l4-1 5-5h2l2-4z" fill="#02041D"/>
<path transform="translate(572,594)" d="m0 0 5 1v2l3 2 1 5 1 2 4 1 2 5-2 2h-7l-3-3v-2l-4-2-2-7z" fill="#020210"/>
<path transform="translate(849,369)" d="m0 0h6l1 1-1 7-9 3-8 1-1 2-7 2-6 3 1-5 6-3 7-2v-2l6-1 4-1z" fill="#02041D"/>
<path transform="translate(463,568)" d="m0 0 1 2h2l-2 10-4 2-2 6h-2l-1 4h-3l-1 4h-3l-1-5 2-3h2l2-4 6-9 1-4z" fill="#020210"/>
<path transform="translate(590,616)" d="m0 0 5 5 5 7 3 8v3l-4 1-4-4-1-6-3-1-3-6-1-4z" fill="#020210"/>
<path transform="translate(751,697)" d="m0 0 3 1 5 4 7 7 8 7 4 3v2h2v5h-2v-3l-4-2-9-7-5-5-5-4-3-1v5h-1z" fill="#02051E"/>
<path transform="translate(281,660)" d="m0 0 3 1 1 3h-2l1 3-5 1-6 4-9 7-5 5-3 1-1 2h-2l2-8 5-2 1-3 3-1h2l3-4 7-4z" fill="#02041D"/>
<path transform="translate(623,464)" d="m0 0 10 1 64 1v1h-64l-1 2-2-1-1 3-6 1-3-1-2-6 5 1z" fill="#02041D"/>
<path transform="translate(303,401)" d="m0 0 6 2 2 4 7 1 4 2 1 2 6 3-1 3-6-1-8-4-11-5z" fill="#020210"/>
<path transform="translate(646,176)" d="m0 0 7 1 3 4-2 6-3 1-1 2-6-2-1-1v-8z" fill="#02041D"/>
<path transform="translate(449,242)" d="m0 0h5l3 15v3l2 1v4l1 6-4 1-3-10-1-9h-2l-1-5 1-3z" fill="#02051E"/>
<path transform="translate(424,832)" d="m0 0h6l4 3v7l-4 3-6-1-2-2v-7z" fill="#02041D"/>
<path transform="translate(178,419)" d="m0 0h6l3 2h3l1 3 9 3v1l-13-1-3 2h-7l-1-7z" fill="#02041D"/>
<path transform="translate(515,640)" d="m0 0h3v11l1 1 2 17h-8l2-4-1-3v-20z" fill="#020210"/>
<path transform="translate(315,566)" d="m0 0h6l-3 9-2 2-1-4v3l-6 1-4-1-1-7 8-1z" fill="#02051E"/>
<path transform="translate(574,538)" d="m0 0h12v4h-2l6 11-1 3-9-9-4-2z" fill="#020210"/>
<path transform="translate(637,348)" d="m0 0h8v3l-11 13-2-1-5 1 2-5 4-3 2-4 5-1-4-2z" fill="#020210"/>
<path transform="translate(578,442)" d="m0 0 5 1 9 7 1 4-1 2-5-1 1-4-3-3-6-2 1 1v3l-5 5h-3l-1-4 1-3 3-1 2 1-1-4z" fill="#020211"/>
<path transform="translate(559,445)" d="m0 0h5l-1 6-6 7-4 2-1 2-4-1 1-4h2v-2h3v-5l3-3h2z" fill="#020210"/>
<path transform="translate(694,279)" d="m0 0 2 1v2h-2l1 5-7 11-5 1 2-7v-3l3-3 2-4 1-1z" fill="#020210"/>
<path transform="translate(572,737)" d="m0 0h8l-2 1 1 4h2l1 5v3h1v6l-4 1-3-9-1-4-2-2 1-3z" fill="#02051E"/>
<path transform="translate(706,656)" d="m0 0 5 1 10 8v2l-9 2-4-1h3l-3-6z" fill="#02041D"/>
<path transform="translate(427,446)" d="m0 0 5 2 8 6 3 3-7 3-4-2-2-4-4-2z" fill="#020210"/>
<path transform="translate(670,675)" d="m0 0 6 3v2l5 1 2 6-1 5-2-4-4-1v-2l-4-1-3-6z" fill="#02041D"/>
<path transform="translate(692,699)" d="m0 0 3 3 4 10 1 2 3 3-1 4-4-1-5-8-1-4z" fill="#02041D"/>
<path transform="translate(569,428)" d="m0 0h2l2 5h-2l2 4h-2l2 4h-2l-2 4-4-1 1-9v-3z" fill="#020211"/>
<path transform="translate(424,582)" d="m0 0 5 2-3 5-5 5-5 4h-3v-3h-2l1-3 5-1 2 1v-2l-2-1 6-2 2-1z" fill="#020210"/>
<path transform="translate(367,776)" d="m0 0 3 3v5l-4 4-6-1v-6l4-4 3 1z" fill="#080A23"/>
<path transform="translate(710,373)" d="m0 0 3 1-2 4-8 6h-2v2l-7 4-1-5h3v-2l10-6 3-1z" fill="#02051E"/>
<path transform="translate(448,572)" d="m0 0 4 1v3l-2 1-2 5-7 1-3 1-1-3 5-5 5-1z" fill="#020210"/>
<path transform="translate(415,472)" d="m0 0 12 3 4 3-2 4v-2l-10-2-6-2-2-2h3z" fill="#020210"/>
<path transform="translate(488,566)" d="m0 0h3l1 7-1 3-4 1-1 3-1-6 1-5z" fill="#020210"/>
<path transform="translate(558,359)" d="m0 0 3 2-1 10-1 22h-1v-17h-2v-8l2-1v-3l-1-2z" fill="#02041D"/>
<path transform="translate(477,670)" d="m0 0 2 2 1 7-1 5-2 12h-1v-25z" fill="#020210"/>
<path transform="translate(306,499)" d="m0 0h10l1 6h-9l-5-1 1-3h2z" fill="#020210"/>
<path transform="translate(625,351)" d="m0 0h5l-1 3-7 2-3 1v7l-5-3 2-4z" fill="#020213"/>
<path transform="translate(537,192)" d="m0 0h3v2l3-1-3 9-6-3 1-5z" fill="#02051E"/>
<path transform="translate(385,604)" d="m0 0 3 3-1 4-4 3-5-1 3-6z" fill="#020210"/>
<path transform="translate(443,396)" d="m0 0 3 1-1 2 1 5-1 4h-4l-2-3 1-5z" fill="#02051E"/>
<path transform="translate(361,380)" d="m0 0 5 3 3 4-5 1-3-1-2-2h-2l-1-3z" fill="#020210"/>
<path transform="translate(760,751)" d="m0 0h6l2 4h-3l3 3-6 1-3-2z" fill="#02041C"/>
<path transform="translate(415,520)" d="m0 0 1 3 3-1h30v1h-29v2l-6 1-1-3z" fill="#02051E"/>
<path transform="translate(656,284)" d="m0 0 6 1-3 7-4 2-1-5z" fill="#020210"/>
<path transform="translate(572,546)" d="m0 0 4 5 1 11h-2l-4-9z" fill="#020212"/>
<path transform="translate(387,544)" d="m0 0h6l2 3-2 2-6 1-3-2 1-3z" fill="#020210"/>
<path transform="translate(304,446)" d="m0 0 13 4v2l-6 1-7-2z" fill="#02051E"/>
<path transform="translate(585,553)" d="m0 0 6 2 3 5-1 2-5-1-3-2z" fill="#02041D"/>
<path transform="translate(381,542)" d="m0 0 2 2 1 6-1 3-5 1 1-9z" fill="#020211"/>
<path transform="translate(606,517)" d="m0 0 12 1 2 3-5 1-10-2z" fill="#020210"/>
<path transform="translate(343,421)" d="m0 0 4 2 4 4-1 2-5-2-6-3z" fill="#020210"/>
<path transform="translate(403,617)" d="m0 0h3l1 6-4 2-3-3 2-4z" fill="#020210"/>
<path transform="translate(252,605)" d="m0 0h8v3l-4 2-6-1z" fill="#020210"/>
<path transform="translate(419,602)" d="m0 0 3 1v3l-8 4-1-4z" fill="#020210"/>
<path transform="translate(614,392)" d="m0 0 4 1 1 2-2 3-2-1-1 2h-3l-1-3z" fill="#020210"/>
<path transform="translate(398,503)" d="m0 0h8l2 2 1-2v2l5-1 2-1v3l-18 1z" fill="#020210"/>
<path transform="translate(507,397)" d="m0 0 3 3 2-1 1 10-3-1-3-7z" fill="#020211"/>
<path transform="translate(461,460)" d="m0 0 5 3v3l-2 1-6-4-1-2z" fill="#020210"/>
<path transform="translate(680,409)" d="m0 0 5 1-1 2-10 4v-4z" fill="#020210"/>
<path transform="translate(432,736)" d="m0 0h1v7l-1 3-3-1v-5l-1-3z" fill="#02051E"/>
<path transform="translate(470,620)" d="m0 0h1l-1 10h-2l-1 2-1-3 2-7z" fill="#020210"/>
<path transform="translate(478,329)" d="m0 0h4l2 6-1 5-3-4z" fill="#02041B"/>
<path transform="translate(388,295)" d="m0 0 2 1-1 2 3-1 2 5-3 3-4-6z" fill="#020210"/>
<path transform="translate(664,272)" d="m0 0 2 4h2l-2 5h-3l-1-7z" fill="#020210"/>
<path transform="translate(597,460)" d="m0 0h2l2 4 2 1-1 3-4 1-2-4z" fill="#020210"/>
<path transform="translate(434,297)" d="m0 0h7l1 3h-14v-2z" fill="#020210"/>
<path transform="translate(458,559)" d="m0 0 1 2-2 7-5-2z" fill="#020210"/>
<path transform="translate(839,335)" d="m0 0h6l3 2 1 7h-2l-1-6-8-1z" fill="#02051E"/>
<path transform="translate(381,387)" d="m0 0 4 1v5l-4 1-3-5h3z" fill="#020210"/>
<path transform="translate(302,683)" d="m0 0 2 1-5 5-4 6-2 1 2-6 5-5z" fill="#02041A"/>
<path transform="translate(570,276)" d="m0 0 2 1-1 9-1-2h-2v-6z" fill="#020210"/>
<path transform="translate(353,375)" d="m0 0h3l1 5-4 1-2-2v-3z" fill="#020210"/>
</svg>
