<svg xmlns="http://www.w3.org/2000/svg" viewBox="0 0 256 255"><path fill="#3776AB" d="M127.9 0c-15.6.1-30.6 1.4-43.7 3.8C52.2 7.5 46.3 15 46.3 32.7v23.5h84.1v10.4H46.3c-18.5 0-34.3 13-38.6 30.3-4.5 18.3-4.7 29.8 0 49.2 4.4 17.9 13.5 30.3 32 30.3h23.1v-30.8c0-20.2 17.5-37.7 38.6-37.7h65.5c17.2 0 31.2-14.5 31.2-32.1V32.7C202.2 15.7 192.6 7.6 175.6 3.8 162.3 1.3 143.5 0 127.9 0zM94.5 20.4c6.9 0 12.5 5.7 12.5 12.6c0 7-5.6 12.6-12.5 12.6s-12.5-5.7-12.5-12.6c0-7 5.6-12.6 12.5-12.6z"/><path fill="#FFE052" d="M127.9 255.3c15.6-.1 30.6-1.4 43.7-3.8c32-5.9 37.9-13.5 37.9-31.2v-23.5h-84.1v-10.4h84.1c18.5 0 34.3-13 38.6-30.3c4.5-18.3 4.7-29.8 0-49.2c-4.4-17.9-13.5-30.3-32-30.3h-23.1v30.8c0 20.2-17.5 37.7-38.6 37.7H88.8c-17.2 0-31.2 14.5-31.2 32.1v52.4c0 17 9.6 25.1 26.6 28.8c13.3 2.5 32.1 3.8 47.7 3.8zM161.3 234.9c-6.9 0-12.5-5.7-12.5-12.6c0-7 5.6-12.6 12.5-12.6s12.5 5.7 12.5 12.6c0 7-5.6 12.6-12.5 12.6z"/></svg>